# xmcd CD database file
#
# Track frame offsets:
#	150
#	14064
#	32279
#	54094
#	70691
#	81887
#	101442
#	110941
#	121762
#	132108
#	146271
#	167137
#	187369
#	198196
#	207837
#	226128
#	242589
#	259125
#	270890
#	285323
#	297374
#	308481
#	322730
#	332807
#
# Disc length: 4586 seconds
#
# Revision: 1
# Processed by: cddbd v1.5.2PL0 Copyright (c) Steve Scherf et al.
# Submitted via: CDex 1.51
#
DISCID=4711e818
DTITLE=Various Artist - ZM-XMAS-2
DYEAR=2015
DGENRE=Blues
TTITLE0=Chuck Berry - Run Rudolph Run
TTITLE1=Cliff Richard - Misletoe And Wine
TTITLE2=Cliff Richard - Saviour's Day
TTITLE3=Darkness - Christmas Time Don't Let The Bells End
TTITLE4=Darlene Love - Winter Wonderland
TTITLE5=David Essex - A Winter's Tale
TTITLE6=Dean Martin - Let It Snow Let It Snow Let It Snow
TTITLE7=Dean Martin - Rudulph The Red Nosed Reindeer
TTITLE8=Dickie Valentine - Christmas Alphabet
TTITLE9=Eagles - Please Come Home For Christmas
TTITLE10=East 17 - Stay Another Day
TTITLE11=Elton John - Step Into Christmas
TTITLE12=Elvis Presley - Blue Christmas
TTITLE13=Elvis Presley - Santa Bring My Baby Back To Me
TTITLE14=Gary Glitter - Another Rock And Roll Christmas
TTITLE15=Geraldine McQueen - Once Upon A Christmas Song
TTITLE16=Greg Lake - I Believe In Father Christmas
TTITLE17=Jackson 5 - Santa Claus Is Coming To Town
TTITLE18=Jim Reeves - Silver Bells
TTITLE19=Traditional - Hark The Herald Angels Sing
TTITLE20=Traditional - I Saw Three Ships
TTITLE21=Traditional - Jingle Bells
TTITLE22=Traditional - Joy To The World
TTITLE23=Traditional - O Come All Ye Faithful
EXTD=
EXTT0=
EXTT1=
EXTT2=
EXTT3=
EXTT4=
EXTT5=
EXTT6=
EXTT7=
EXTT8=
EXTT9=
EXTT10=
EXTT11=
EXTT12=
EXTT13=
EXTT14=
EXTT15=
EXTT16=
EXTT17=
EXTT18=
EXTT19=
EXTT20=
EXTT21=
EXTT22=
EXTT23=
PLAYORDER=
